<?xml version="1.0" encoding="UTF-8" standalone="no"?>
<!-- Created with Inkscape (http://www.inkscape.org/) -->

<svg
   width="16mm"
   height="16mm"
   viewBox="0 0 15.999999 16"
   version="1.1"
   id="svg5"
   inkscape:version="1.2.2 (b0a8486, 2022-12-01)"
   sodipodi:docname="Or Logo.svg"
   inkscape:export-filename="Downloads/Personal Website!/Imgs/mylogo.svg"
   inkscape:export-xdpi="25.4"
   inkscape:export-ydpi="25.4"
   xmlns:inkscape="http://www.inkscape.org/namespaces/inkscape"
   xmlns:sodipodi="http://sodipodi.sourceforge.net/DTD/sodipodi-0.dtd"
   xmlns="http://www.w3.org/2000/svg"
   xmlns:svg="http://www.w3.org/2000/svg">
  <sodipodi:namedview
     id="namedview7"
     pagecolor="#ffffff"
     bordercolor="#000000"
     borderopacity="0.25"
     inkscape:showpageshadow="2"
     inkscape:pageopacity="0"
     inkscape:pagecheckerboard="true"
     inkscape:deskcolor="#d1d1d1"
     inkscape:document-units="mm"
     showgrid="false"
     inkscape:zoom="2.947377"
     inkscape:cx="17.812448"
     inkscape:cy="31.892764"
     inkscape:window-width="1440"
     inkscape:window-height="900"
     inkscape:window-x="0"
     inkscape:window-y="0"
     inkscape:window-maximized="0"
     inkscape:current-layer="layer1" />
  <defs
     id="defs2" />
  <g
     inkscape:label="Layer 1"
     inkscape:groupmode="layer"
     id="layer1">
    <path
       id="path111"
       style="fill:#bda6b9;fill-opacity:1;fill-rule:evenodd;stroke-width:0.0351214"
       d="M 8.0029833,-0.00268045 A 8.0047116,8.0047116 0 0 0 -0.00173623,8.0019555 8.0047116,8.0047116 0 0 0 8.0029833,16.006677 8.0047116,8.0047116 0 0 0 16.007703,8.0019555 8.0047116,8.0047116 0 0 0 8.0029833,-0.00268045 Z m 0,2.32134815 a 5.6833454,5.6833454 0 0 1 5.6832887,5.6832878 5.6833454,5.6833454 0 0 1 -5.6832887,5.6833735 5.6833454,5.6833454 0 0 1 -5.68337,-5.6833735 5.6833454,5.6833454 0 0 1 5.68337,-5.6832878 z"
       inkscape:export-filename="Downloads/Personal Website!/Imgs/path111.svg"
       inkscape:export-xdpi="25.4"
       inkscape:export-ydpi="25.4" />
    <path
       style="fill:#ffffff;fill-opacity:0;fill-rule:nonzero;stroke-width:0.0287151"
       d="M 6.9862579,13.729858 C 4.069371,13.470918 1.914535,10.801371 2.2906054,7.9125854 2.4433597,6.7392103 2.9263875,5.7523362 3.7615043,4.9073899 4.7001965,3.9576502 5.9063511,3.4249122 7.2285582,3.3760528 8.1449379,3.3421882 8.92291,3.5050632 9.7267713,3.8990656 10.296242,4.1781872 10.72861,4.49764 11.196052,4.9846408 c 0.364581,0.3798359 0.621125,0.7425231 0.867301,1.2261404 0.742907,1.4594517 0.760131,3.1388891 0.04729,4.6104508 -0.801712,1.655008 -2.4055743,2.749928 -4.2647019,2.911409 -0.3693392,0.03209 -0.4706491,0.03176 -0.8596756,-0.0029 z"
       id="path6495" />
  </g>
  <g
     inkscape:groupmode="layer"
     id="layer2"
     inkscape:label="Layer 2">
    <path
       style="opacity:1;fill:#4a4745;fill-opacity:1;stroke-width:0.0423582"
       d="M 4.5631962,3.4582419 C 5.7678839,2.6004636 4.5791091,0.49688757 3.0049222,1.6903272 -1.4513979,5.3542403 -1.1677357,12.946153 5.2667881,15.549904 3.6721899,14.976948 4.370838,12.821086 5.9173937,13.27228 c 0.036943,0.01078 0.074369,0.02304 0.1122602,0.03685 C 3.8637805,12.530864 2.195766,10.35029 2.3249525,7.6938499 2.4555883,5.2646117 4.1330772,3.8742166 4.1330772,3.8742166"
       id="path1117"
       sodipodi:nodetypes="cccsccc"
       inkscape:transform-center-x="4.9819406"
       inkscape:transform-center-y="0.44342966" />
  </g>
</svg>
