<svg width="49" height="25" viewBox="0 0 49 25" fill="none" xmlns="http://www.w3.org/2000/svg">
<g id="NavBar">
<g id="Right" filter="url(#filter0_d_13_21)">
<path d="M22.7808 2.06522L22.3846 1.91466L22.0008 2.09467L8.57528 8.39304L6.6455 9.29837L8.57528 10.2037L22.0008 16.5021L22.3846 16.6821L22.7808 16.5315L39.3552 10.2331L41.8151 9.29837L39.3552 8.36359L22.7808 2.06522Z" stroke="black" stroke-width="2" shape-rendering="crispEdges"/>
</g>
<g id="Left" filter="url(#filter1_d_13_21)">
<path d="M23.088 12.9112L23.4722 13.0849L23.8649 12.9311L31.3649 9.99182L33.9055 8.99613L31.3231 8.1144L23.8231 5.55364L23.4754 5.4349L23.1335 5.5696L16.6335 8.13036L14.4327 8.99736L16.588 9.97194L23.088 12.9112Z" stroke="black" stroke-width="2" shape-rendering="crispEdges"/>
</g>
<line id="Line 2" x1="9" y1="9.5" x2="17" y2="9.5" stroke="black" stroke-width="3"/>
</g>
<defs>
<filter id="filter0_d_13_21" x="0.291016" y="0.829285" width="48.3392" height="24.9381" filterUnits="userSpaceOnUse" color-interpolation-filters="sRGB">
<feFlood flood-opacity="0" result="BackgroundImageFix"/>
<feColorMatrix in="SourceAlpha" type="matrix" values="0 0 0 0 0 0 0 0 0 0 0 0 0 0 0 0 0 0 127 0" result="hardAlpha"/>
<feOffset dy="4"/>
<feGaussianBlur stdDeviation="2"/>
<feComposite in2="hardAlpha" operator="out"/>
<feColorMatrix type="matrix" values="0 0 0 0 0 0 0 0 0 0 0 0 0 0 0 0 0 0 0.25 0"/>
<feBlend mode="normal" in2="BackgroundImageFix" result="effect1_dropShadow_13_21"/>
<feBlend mode="normal" in="SourceGraphic" in2="effect1_dropShadow_13_21" result="shape"/>
</filter>
<filter id="filter1_d_13_21" x="7.86548" y="4.36981" width="32.9456" height="17.8" filterUnits="userSpaceOnUse" color-interpolation-filters="sRGB">
<feFlood flood-opacity="0" result="BackgroundImageFix"/>
<feColorMatrix in="SourceAlpha" type="matrix" values="0 0 0 0 0 0 0 0 0 0 0 0 0 0 0 0 0 0 127 0" result="hardAlpha"/>
<feOffset dy="4"/>
<feGaussianBlur stdDeviation="2"/>
<feComposite in2="hardAlpha" operator="out"/>
<feColorMatrix type="matrix" values="0 0 0 0 0 0 0 0 0 0 0 0 0 0 0 0 0 0 0.25 0"/>
<feBlend mode="normal" in2="BackgroundImageFix" result="effect1_dropShadow_13_21"/>
<feBlend mode="normal" in="SourceGraphic" in2="effect1_dropShadow_13_21" result="shape"/>
</filter>
</defs>
</svg>
