<?xml version="1.0" encoding="UTF-8" standalone="no"?>
<!-- Created with Inkscape (http://www.inkscape.org/) -->

<svg
   width="16.015406mm"
   height="16.009359mm"
   viewBox="0 0 16.015405 16.009359"
   version="1.1"
   id="svg5"
   inkscape:version="1.2.2 (b0a8486, 2022-12-01)"
   sodipodi:docname="Or Logo.svg"
   inkscape:export-filename="Downloads/Personal Website!/Imgs/Or Logo.svg"
   inkscape:export-xdpi="25.4"
   inkscape:export-ydpi="25.4"
   xmlns:inkscape="http://www.inkscape.org/namespaces/inkscape"
   xmlns:sodipodi="http://sodipodi.sourceforge.net/DTD/sodipodi-0.dtd"
   xmlns="http://www.w3.org/2000/svg"
   xmlns:svg="http://www.w3.org/2000/svg">
  <sodipodi:namedview
     id="namedview7"
     pagecolor="#ffffff"
     bordercolor="#000000"
     borderopacity="0.25"
     inkscape:showpageshadow="2"
     inkscape:pageopacity="0"
     inkscape:pagecheckerboard="true"
     inkscape:deskcolor="#d1d1d1"
     inkscape:document-units="mm"
     showgrid="false"
     inkscape:zoom="2.947377"
     inkscape:cx="17.812448"
     inkscape:cy="31.892764"
     inkscape:window-width="1440"
     inkscape:window-height="900"
     inkscape:window-x="0"
     inkscape:window-y="0"
     inkscape:window-maximized="0"
     inkscape:current-layer="layer1" />
  <defs
     id="defs2" />
  <g
     inkscape:label="Layer 1"
     inkscape:groupmode="layer"
     id="layer1"
     transform="translate(0.00770297,0.00268045)">
    <path
       id="path111"
       style="fill:#ffccaa;fill-opacity:1;fill-rule:evenodd;stroke-width:0.0351214"
       d="M 8.0029833,-0.00268045 A 8.0047116,8.0047116 0 0 0 -0.00173623,8.0019555 8.0047116,8.0047116 0 0 0 8.0029833,16.006677 8.0047116,8.0047116 0 0 0 16.007703,8.0019555 8.0047116,8.0047116 0 0 0 8.0029833,-0.00268045 Z m 0,2.32134815 a 5.6833454,5.6833454 0 0 1 5.6832887,5.6832878 5.6833454,5.6833454 0 0 1 -5.6832887,5.6833735 5.6833454,5.6833454 0 0 1 -5.68337,-5.6833735 5.6833454,5.6833454 0 0 1 5.68337,-5.6832878 z" />
  </g>
  <g
     inkscape:groupmode="layer"
     id="layer2"
     inkscape:label="Layer 2"
     transform="translate(0.00770297,0.00268045)">
    <path
       style="fill:#000080;fill-opacity:1;stroke-width:0.0423582"
       d="M 3.2674411,4.9994135 C 4.1686512,3.9084534 2.2527962,2.1443932 1.1824534,3.8047332 -1.8218765,8.3569385 1.0103684,15.998676 8.0015907,15.998682 6.266725,16.006592 6.2743336,13.685325 8.0029743,13.685329 5.701539,13.695776 3.4352591,12.17889 2.6469838,9.6388146 1.9378716,7.3117082 2.9902375,5.470273 2.9902375,5.470273"
       id="path1117"
       sodipodi:nodetypes="cccccc" />
  </g>
</svg>
